<?xml version="1.0" encoding="utf-8"?>
<!-- Uploaded to: SVG Repo, www.svgrepo.com, Generator: SVG Repo Mixer Tools -->
<svg fill="#000000" height="800px" width="800px" version="1.2" baseProfile="tiny" id="piggy_bank_by_Adioma"
	 xmlns="http://www.w3.org/2000/svg" xmlns:xlink="http://www.w3.org/1999/xlink"  viewBox="0 0 256 245"
	 xml:space="preserve">
<path d="M254,128.7c0,2.3,0,36,0,49.5c0,4.6-3.6,5.5-6.1,5.5c-2.6,0-30.9,0-30.9,0c-6.1,7.8-13.9,14.7-22.9,20.7v27.2
	c0,4-3.3,7.3-7.3,7.3h-26.6c-4,0-7.3-3.3-7.3-7.3v-9.7c-11,2.6-22.8,4-35,4c-13.4,0-26.2-1.7-38.1-4.8v10.5c0,4-3.3,7.3-7.3,7.3
	H45.8c-4,0-7.3-3.3-7.3-7.3v-29.3C16.7,186.7,3,164.8,3,140.6c0-31.2,22.6-58.4,56.3-73.3l0.3,0c7.6,22.1,28.6,38.1,53.3,38.1
	c25.9,0,47.9-17.6,54.5-41.6c5.7,2,11.1,4.3,16.2,7c5.1-11,22.2-23.1,46.3-18c2.7,0.6,4.2,3.5,3.1,6.1l-16.4,38.3
	c6.7,8.3,11.5,17.6,14,27.4c0,0,14.8,0,18.2,0C252.1,124.6,254,125.8,254,128.7z M68.5,49.4C68.3,24.2,88.6,3.7,113.9,4.1
	c24,0.4,43.6,20,44,44c0.4,25.6-20.6,46.3-46.2,45.5C87.9,92.9,68.7,73.3,68.5,49.4z M119,59.4c0,3.1-2.5,5.3-7.6,5.3
	c-4.8,0-9.3-1.7-12.1-3.1L97,70.7c2.6,1.5,8,2.9,13.3,2.9v6.8h6.2v-7c9.1-2,13.3-7.4,13.3-14.4s-3.9-11.3-12.4-14.4
	c-6.2-2.5-9.1-3.7-9.1-6.8c0-2.3,2.5-4.5,7-4.5s7.9,1.4,9.9,2.3l2.5-8.8c-2.7-1.5-6.4-2.5-11.6-2.5v-7h-6.2v7.4
	c-8.3,1.7-12.8,7-12.8,13.8c0,7.4,5.1,11.5,13.3,14.4C116.6,55,119,56.3,119,59.4z"/>
</svg>